<svg width="1440" height="860" viewBox="0 0 1440 860" fill="none" xmlns="http://www.w3.org/2000/svg">
  <rect width="1440" height="860" fill="#202124"/>
  <rect x="28" y="24" width="1384" height="812" rx="14" fill="#24262a" stroke="#3b414b" stroke-width="2"/>

  <text x="48" y="64" fill="#f8fafc" font-family="Arial, Helvetica, sans-serif" font-size="31" font-weight="700">ABE DAW - Untitled</text>
  <text x="1242" y="62" fill="#cbd5e1" font-family="Arial, Helvetica, sans-serif" font-size="16" text-anchor="end">Ready</text>

  <g font-family="Arial, Helvetica, sans-serif" font-size="13" font-weight="700" fill="#aeb7c4">
    <text x="48" y="111">PROJECT</text>
    <text x="48" y="154">TRANSPORT</text>
    <text x="48" y="197">TRACK</text>
    <text x="48" y="240">CLIP EDIT</text>
    <text x="48" y="283">AI / GENERATE</text>
  </g>

  <g font-family="Arial, Helvetica, sans-serif" font-size="15" font-weight="700" fill="#ffffff">
    <g fill="#334155">
      <rect x="160" y="88" width="64" height="30" rx="5"/>
      <rect x="232" y="88" width="100" height="30" rx="5" fill="#7c3aed"/>
      <rect x="340" y="88" width="112" height="30" rx="5"/>
      <rect x="460" y="88" width="70" height="30" rx="5"/>
      <rect x="538" y="88" width="100" height="30" rx="5"/>
      <rect x="646" y="88" width="112" height="30" rx="5"/>
      <rect x="766" y="88" width="120" height="30" rx="5" fill="#0f766e"/>
      <rect x="894" y="88" width="118" height="30" rx="5" fill="#0f766e"/>
    </g>
    <text x="192" y="108" text-anchor="middle">New</text>
    <text x="282" y="108" text-anchor="middle">Demo Song</text>
    <text x="396" y="108" text-anchor="middle">Open</text>
    <text x="495" y="108" text-anchor="middle">Save</text>
    <text x="588" y="108" text-anchor="middle">Export Mix</text>
    <text x="702" y="108" text-anchor="middle">Export Track</text>
    <text x="826" y="108" text-anchor="middle">+ Audio</text>
    <text x="953" y="108" text-anchor="middle">+ MIDI</text>

    <rect x="160" y="131" width="82" height="30" rx="5" fill="#2563eb"/>
    <rect x="250" y="131" width="68" height="30" rx="5" fill="#475569"/>
    <rect x="326" y="131" width="82" height="30" rx="5" fill="#b91c1c"/>
    <rect x="416" y="131" width="66" height="30" rx="5" fill="#2563eb"/>
    <rect x="490" y="131" width="86" height="30" rx="5" fill="#2563eb"/>
    <rect x="584" y="131" width="104" height="30" rx="5" fill="#2563eb"/>
    <rect x="696" y="131" width="68" height="30" rx="5" fill="#b91c1c"/>
    <text x="201" y="151" text-anchor="middle">Play</text>
    <text x="284" y="151" text-anchor="middle">Stop</text>
    <text x="367" y="151" text-anchor="middle">Record</text>
    <text x="449" y="151" text-anchor="middle">Loop</text>
    <text x="533" y="151" text-anchor="middle">Loop Clip</text>
    <text x="636" y="151" text-anchor="middle">Metronome</text>
    <text x="730" y="151" text-anchor="middle">Panic</text>
  </g>

  <text x="788" y="152" fill="#ffffff" font-family="Arial, Helvetica, sans-serif" font-size="14" font-weight="700">BPM</text>
  <rect x="824" y="135" width="150" height="22" rx="11" fill="#111827" stroke="#566073"/>
  <rect x="824" y="135" width="68" height="22" rx="11" fill="#60a5fa"/>
  <text x="998" y="152" fill="#f8fafc" font-family="Arial, Helvetica, sans-serif" font-size="16">00:00 / 00:00   Bar 1 Beat 1</text>

  <rect x="160" y="174" width="190" height="30" rx="5" fill="#111827" stroke="#566073"/>
  <text x="176" y="194" fill="#e5e7eb" font-family="Arial, Helvetica, sans-serif" font-size="14">MIDI 1</text>
  <rect x="358" y="174" width="112" height="30" rx="5" fill="#111827" stroke="#566073"/>
  <text x="374" y="194" fill="#e5e7eb" font-family="Arial, Helvetica, sans-serif" font-size="14">Lead</text>
  <g font-family="Arial, Helvetica, sans-serif" font-size="14" font-weight="700" fill="#ffffff">
    <rect x="478" y="174" width="108" height="30" rx="5" fill="#0f766e"/>
    <rect x="594" y="174" width="76" height="30" rx="5" fill="#0f766e"/>
    <rect x="678" y="174" width="86" height="30" rx="5" fill="#0f766e"/>
    <rect x="772" y="174" width="72" height="30" rx="5" fill="#b91c1c"/>
    <rect x="852" y="174" width="32" height="30" rx="5" fill="#b91c1c"/>
    <rect x="892" y="174" width="32" height="30" rx="5" fill="#475569"/>
    <rect x="932" y="174" width="32" height="30" rx="5" fill="#475569"/>
    <text x="532" y="194" text-anchor="middle">Import</text>
    <text x="632" y="194" text-anchor="middle">Rename</text>
    <text x="721" y="194" text-anchor="middle">Duplicate</text>
    <text x="808" y="194" text-anchor="middle">Delete</text>
    <text x="868" y="194" text-anchor="middle">R</text>
    <text x="908" y="194" text-anchor="middle">M</text>
    <text x="948" y="194" text-anchor="middle">S</text>
  </g>
  <text x="984" y="194" fill="#cbd5e1" font-family="Arial, Helvetica, sans-serif" font-size="13">Vol</text>
  <rect x="1016" y="184" width="156" height="10" rx="5" fill="#111827" stroke="#566073"/>
  <rect x="1016" y="184" width="112" height="10" rx="5" fill="#14b8a6"/>
  <text x="1190" y="194" fill="#cbd5e1" font-family="Arial, Helvetica, sans-serif" font-size="13">Pan</text>
  <rect x="1224" y="184" width="132" height="10" rx="5" fill="#111827" stroke="#566073"/>
  <rect x="1286" y="179" width="8" height="20" rx="4" fill="#14b8a6"/>

  <g font-family="Arial, Helvetica, sans-serif" font-size="14" font-weight="700" fill="#ffffff">
    <rect x="160" y="217" width="108" height="30" rx="5" fill="#475569"/>
    <rect x="276" y="217" width="86" height="30" rx="5" fill="#b91c1c"/>
    <rect x="370" y="217" width="60" height="30" rx="5" fill="#475569"/>
    <rect x="438" y="217" width="72" height="30" rx="5" fill="#475569"/>
    <rect x="518" y="217" width="78" height="30" rx="5" fill="#475569"/>
    <rect x="604" y="217" width="80" height="30" rx="5" fill="#475569"/>
    <rect x="692" y="217" width="92" height="30" rx="5" fill="#475569"/>
    <text x="214" y="237" text-anchor="middle">Duplicate</text>
    <text x="319" y="237" text-anchor="middle">Delete</text>
    <text x="400" y="237" text-anchor="middle">Split</text>
    <text x="474" y="237" text-anchor="middle">Fade In</text>
    <text x="557" y="237" text-anchor="middle">Fade Out</text>
    <text x="644" y="237" text-anchor="middle">Quantize</text>
    <text x="738" y="237" text-anchor="middle">Snap 1/16</text>
  </g>
  <text x="806" y="237" fill="#cbd5e1" font-family="Arial, Helvetica, sans-serif" font-size="13">Zoom</text>
  <rect x="854" y="227" width="170" height="10" rx="5" fill="#111827" stroke="#566073"/>
  <rect x="854" y="227" width="74" height="10" rx="5" fill="#94a3b8"/>

  <g font-family="Arial, Helvetica, sans-serif" font-size="14" font-weight="700" fill="#ffffff">
    <rect x="160" y="260" width="90" height="30" rx="5" fill="#7c3aed"/>
    <rect x="258" y="260" width="76" height="30" rx="5" fill="#7c3aed"/>
    <rect x="342" y="260" width="70" height="30" rx="5" fill="#7c3aed"/>
    <rect x="420" y="260" width="84" height="30" rx="5" fill="#7c3aed"/>
    <text x="205" y="280" text-anchor="middle">AI Chords</text>
    <text x="296" y="280" text-anchor="middle">AI Bass</text>
    <text x="377" y="280" text-anchor="middle">AI Arp</text>
    <text x="462" y="280" text-anchor="middle">AI Guitar</text>
  </g>
  <text x="532" y="280" fill="#cbd5e1" font-family="Arial, Helvetica, sans-serif" font-size="14">MIDI Input</text>
  <rect x="618" y="260" width="260" height="30" rx="5" fill="#111827" stroke="#566073"/>
  <text x="636" y="280" fill="#94a3b8" font-family="Arial, Helvetica, sans-serif" font-size="14">No MIDI devices</text>

  <rect x="48" y="314" width="1344" height="356" rx="8" fill="#17191d" stroke="#3b414b"/>
  <rect x="48" y="314" width="1344" height="36" fill="#111827"/>
  <text x="66" y="337" fill="#cbd5e1" font-family="Arial, Helvetica, sans-serif" font-size="14" font-weight="700">TIMELINE</text>
  <g stroke="#334155" stroke-width="1">
    <line x1="176" y1="350" x2="176" y2="670"/>
    <line x1="338" y1="350" x2="338" y2="670"/>
    <line x1="500" y1="350" x2="500" y2="670"/>
    <line x1="662" y1="350" x2="662" y2="670"/>
    <line x1="824" y1="350" x2="824" y2="670"/>
    <line x1="986" y1="350" x2="986" y2="670"/>
    <line x1="1148" y1="350" x2="1148" y2="670"/>
    <line x1="1310" y1="350" x2="1310" y2="670"/>
  </g>
  <g fill="#94a3b8" font-family="Arial, Helvetica, sans-serif" font-size="13">
    <text x="180" y="338">1</text>
    <text x="342" y="338">2</text>
    <text x="504" y="338">3</text>
    <text x="666" y="338">4</text>
    <text x="828" y="338">5</text>
    <text x="990" y="338">6</text>
  </g>
  <g font-family="Arial, Helvetica, sans-serif" font-size="14" font-weight="700">
    <text x="66" y="391" fill="#e2e8f0">Audio 1</text>
    <text x="66" y="458" fill="#e2e8f0">Demo Drums</text>
    <text x="66" y="525" fill="#e2e8f0">Demo Bass</text>
    <text x="66" y="592" fill="#e2e8f0">Demo Guitar</text>
    <text x="66" y="648" fill="#e2e8f0">Demo Melody</text>
  </g>
  <g opacity="0.9">
    <rect x="190" y="370" width="445" height="36" rx="5" fill="#3da9e8"/>
    <path d="M205 390 C225 372 245 407 265 389 C285 371 306 406 326 388 C346 371 366 407 386 390 C406 373 426 405 446 389 C466 372 486 407 506 390 C526 374 546 405 566 389 C586 372 606 405 626 388" stroke="#dbeafe" stroke-width="2" fill="none"/>
    <rect x="190" y="438" width="972" height="30" rx="5" fill="#ef4444"/>
    <rect x="190" y="505" width="972" height="30" rx="5" fill="#14b8a6"/>
    <rect x="190" y="572" width="972" height="30" rx="5" fill="#f59e0b"/>
    <rect x="190" y="628" width="972" height="30" rx="5" fill="#8b5cf6"/>
  </g>
  <g stroke="#0f172a" stroke-width="2">
    <line x1="230" y1="446" x2="230" y2="460"/>
    <line x1="310" y1="446" x2="310" y2="460"/>
    <line x1="390" y1="446" x2="390" y2="460"/>
    <line x1="470" y1="446" x2="470" y2="460"/>
    <line x1="550" y1="446" x2="550" y2="460"/>
    <line x1="630" y1="446" x2="630" y2="460"/>
    <line x1="710" y1="446" x2="710" y2="460"/>
  </g>
  <line x1="500" y1="314" x2="500" y2="670" stroke="#ffc857" stroke-width="3"/>

  <text x="48" y="711" fill="#aeb7c4" font-family="Arial, Helvetica, sans-serif" font-size="13" font-weight="700">OUTPUT</text>
  <text x="160" y="711" fill="#f8fafc" font-family="Arial, Helvetica, sans-serif" font-size="14" font-weight="700">Master</text>
  <rect x="226" y="700" width="220" height="10" rx="5" fill="#111827" stroke="#566073"/>
  <rect x="226" y="700" width="158" height="10" rx="5" fill="#60a5fa"/>
  <rect x="464" y="690" width="64" height="30" rx="5" fill="#475569"/>
  <text x="496" y="710" fill="#ffffff" font-family="Arial, Helvetica, sans-serif" font-size="14" font-weight="700" text-anchor="middle">Mono</text>
  <text x="550" y="711" fill="#cbd5e1" font-family="Arial, Helvetica, sans-serif" font-size="14">Peak -inf dB</text>
  <rect x="660" y="690" width="94" height="30" rx="5" fill="#475569"/>
  <text x="707" y="710" fill="#ffffff" font-family="Arial, Helvetica, sans-serif" font-size="13" font-weight="700" text-anchor="middle">Reset Peak</text>

  <text x="48" y="766" fill="#aeb7c4" font-family="Arial, Helvetica, sans-serif" font-size="13" font-weight="700">KEYBOARD</text>
  <rect x="160" y="738" width="1196" height="70" rx="8" fill="#111827" stroke="#3b414b"/>
  <g>
    <rect x="180" y="750" width="34" height="48" rx="3" fill="#f8fafc"/>
    <rect x="218" y="750" width="34" height="48" rx="3" fill="#f8fafc"/>
    <rect x="256" y="750" width="34" height="48" rx="3" fill="#f8fafc"/>
    <rect x="294" y="750" width="34" height="48" rx="3" fill="#f8fafc"/>
    <rect x="332" y="750" width="34" height="48" rx="3" fill="#f8fafc"/>
    <rect x="370" y="750" width="34" height="48" rx="3" fill="#f8fafc"/>
    <rect x="408" y="750" width="34" height="48" rx="3" fill="#f8fafc"/>
    <rect x="446" y="750" width="34" height="48" rx="3" fill="#f8fafc"/>
    <rect x="484" y="750" width="34" height="48" rx="3" fill="#f8fafc"/>
    <rect x="522" y="750" width="34" height="48" rx="3" fill="#f8fafc"/>
    <rect x="560" y="750" width="34" height="48" rx="3" fill="#f8fafc"/>
    <rect x="598" y="750" width="34" height="48" rx="3" fill="#f8fafc"/>
    <rect x="204" y="750" width="22" height="30" rx="2" fill="#111827"/>
    <rect x="242" y="750" width="22" height="30" rx="2" fill="#111827"/>
    <rect x="318" y="750" width="22" height="30" rx="2" fill="#111827"/>
    <rect x="356" y="750" width="22" height="30" rx="2" fill="#111827"/>
    <rect x="394" y="750" width="22" height="30" rx="2" fill="#111827"/>
    <rect x="470" y="750" width="22" height="30" rx="2" fill="#111827"/>
    <rect x="508" y="750" width="22" height="30" rx="2" fill="#111827"/>
  </g>
</svg>
